<?xml version="1.0" standalone="no"?>
<!DOCTYPE svg PUBLIC "-//W3C//DTD SVG 20010904//EN"
 "http://www.w3.org/TR/2001/REC-SVG-20010904/DTD/svg10.dtd">
<svg version="1.0" xmlns="http://www.w3.org/2000/svg"
 width="485.000000pt" height="104.000000pt" viewBox="0 0 485.000000 104.000000"
 preserveAspectRatio="xMidYMid meet">

<g transform="translate(0.000000,104.000000) scale(0.100000,-0.100000)"
fill="#000000" stroke="none">
<path d="M1575 782 c-33 -8 -53 -18 -45 -20 8 -3 18 -10 22 -16 4 -6 8 -115 8
-243 0 -197 -2 -234 -16 -247 -14 -15 -7 -16 73 -16 65 1 83 3 71 11 -16 9
-18 33 -18 279 0 307 10 280 -95 252z"/>
<path d="M2036 782 c-50 -13 -56 -16 -38 -23 22 -8 22 -10 22 -248 0 -204 -2
-242 -16 -255 -14 -15 -7 -16 73 -16 65 1 83 3 71 11 -16 9 -18 33 -18 279 0
307 10 280 -94 252z"/>
<path d="M3434 775 c-14 -21 -15 -31 -6 -51 28 -61 121 -45 122 22 0 53 -86
75 -116 29z"/>
<path d="M3915 790 c-16 -4 -43 -11 -60 -15 -29 -7 -29 -7 -7 -16 20 -7 22
-15 22 -74 l0 -65 -27 7 c-46 13 -126 8 -161 -11 -17 -9 -44 -35 -60 -58 -24
-37 -27 -51 -27 -127 0 -98 17 -140 75 -178 39 -27 125 -31 170 -8 25 13 29
13 34 0 6 -16 55 -18 111 -6 24 5 26 8 13 13 -17 7 -18 30 -18 278 0 299 5
279 -65 260z m-62 -183 c16 -11 17 -31 15 -177 l-3 -165 -37 -9 c-75 -19 -118
42 -118 166 0 89 14 143 45 174 27 26 71 31 98 11z"/>
<path d="M118 753 c14 -13 43 -94 93 -265 71 -241 74 -248 99 -248 24 0 28 9
89 191 34 105 65 189 66 187 2 -2 30 -87 63 -188 55 -174 60 -185 85 -188 29
-4 20 -28 117 313 35 125 57 185 72 198 20 17 19 17 -28 17 -38 -1 -45 -3 -31
-11 24 -14 22 -30 -29 -206 -55 -192 -53 -187 -60 -181 -3 3 -30 86 -59 184
l-55 179 21 18 c21 16 18 17 -74 17 l-96 0 24 -24 c44 -44 42 -80 -11 -238
-36 -110 -49 -137 -55 -121 -4 11 -27 94 -50 183 l-43 163 23 18 c23 19 22 19
-79 19 -98 0 -101 -1 -82 -17z"/>
<path d="M2438 760 c22 -9 22 -10 22 -255 0 -245 0 -246 -22 -255 -16 -6 9 -9
82 -9 97 -1 103 0 82 15 -22 15 -22 19 -22 249 0 230 0 234 22 249 21 15 15
16 -82 15 -73 0 -98 -3 -82 -9z"/>
<path d="M1830 694 c-19 -20 -48 -45 -65 -55 -16 -10 -25 -19 -18 -19 8 0 13
-48 15 -171 l3 -171 28 -24 c42 -36 116 -34 155 3 15 16 21 22 12 15 -21 -16
-66 -16 -77 0 -4 7 -10 113 -13 236 l-5 223 -35 -37z"/>
<path d="M905 631 c-45 -11 -69 -26 -103 -65 -90 -102 -56 -276 63 -321 84
-32 195 -5 234 57 11 17 9 17 -17 -2 -92 -68 -212 -9 -212 105 l0 35 120 0
120 0 0 41 c0 106 -97 177 -205 150z m84 -20 c22 -22 37 -97 27 -136 -6 -24
-10 -25 -76 -25 l-70 0 0 45 c0 105 66 169 119 116z"/>
<path d="M1247 626 c-79 -22 -116 -77 -78 -115 12 -12 26 -21 31 -21 21 0 47
39 54 78 7 44 33 67 65 57 32 -10 41 -51 41 -190 0 -127 -1 -135 -22 -149 -49
-35 -98 -7 -98 56 0 45 24 75 75 93 62 22 7 18 -67 -5 -72 -22 -109 -54 -110
-96 -2 -69 35 -104 111 -104 31 0 49 7 73 29 l32 29 27 -29 c32 -34 81 -39
119 -12 l24 17 -24 6 c-25 6 -25 8 -31 140 -3 77 -11 146 -18 161 -27 54 -118
79 -204 55z"/>
<path d="M2215 629 c-16 -5 -41 -18 -55 -30 -21 -17 -22 -19 -3 -10 36 18 91
14 103 -8 5 -11 10 -84 10 -165 0 -118 -3 -147 -16 -160 -14 -15 -7 -16 73
-16 65 1 83 3 71 11 -16 9 -18 27 -18 142 0 147 -10 200 -43 221 -30 20 -86
27 -122 15z"/>
<path d="M2710 619 c-89 -31 -88 -30 -62 -40 21 -8 22 -12 22 -163 0 -137 -2
-156 -17 -165 -13 -8 5 -10 70 -11 80 0 87 1 73 16 -13 13 -16 42 -16 163 l0
147 29 17 c36 21 75 22 95 1 13 -13 16 -42 16 -164 0 -142 -1 -150 -22 -164
-21 -15 -16 -16 72 -16 77 0 91 2 78 13 -14 10 -17 38 -20 169 -3 149 -4 158
-27 182 -43 46 -123 43 -193 -6 -27 -18 -28 -18 -28 -1 0 37 -13 41 -70 22z"/>
<path d="M3179 631 c-69 -22 -99 -61 -99 -127 0 -51 47 -96 123 -118 66 -19
97 -45 97 -80 0 -54 -96 -87 -148 -50 -12 8 -31 33 -42 55 -11 21 -23 39 -25
39 -3 0 -5 -20 -5 -46 0 -42 2 -46 35 -60 44 -18 146 -18 189 0 50 21 76 60
76 115 0 65 -42 107 -125 125 -17 4 -45 15 -63 26 -61 37 -31 114 45 114 36 0
44 -6 95 -76 17 -23 17 -23 18 19 0 33 -5 45 -21 53 -27 15 -117 22 -150 11z"/>
<path d="M3460 612 c-62 -21 -71 -26 -52 -33 21 -8 22 -13 22 -163 0 -137 -2
-156 -17 -165 -13 -8 6 -10 71 -11 87 0 89 0 72 19 -16 17 -17 40 -15 195 2
96 1 177 -1 179 -3 2 -39 -7 -80 -21z"/>
<path d="M4155 625 c-81 -31 -125 -99 -125 -194 0 -71 12 -106 48 -145 36 -38
81 -56 142 -56 62 0 106 18 144 59 34 35 28 41 -12 11 -39 -29 -91 -35 -134
-17 -41 17 -62 51 -72 115 l-6 42 126 0 127 0 -5 51 c-11 113 -121 176 -233
134z m106 -14 c21 -17 24 -28 24 -88 l0 -68 -64 -3 c-35 -2 -68 1 -72 5 -5 5
-4 36 1 68 7 45 16 66 35 83 32 27 46 28 76 3z"/>
<path d="M4623 621 c-18 -11 -38 -30 -45 -41 -19 -29 -28 -25 -28 15 0 45 -5
45 -128 0 -9 -3 -7 -10 8 -25 18 -18 20 -33 20 -155 0 -122 -2 -137 -20 -155
l-20 -20 103 1 c80 0 96 3 75 11 l-28 10 0 136 c1 98 4 142 14 155 16 20 42
22 53 3 15 -25 50 -37 77 -26 21 8 26 16 26 42 0 43 -10 57 -45 63 -20 4 -41
-1 -62 -14z"/>
</g>
</svg>
